<svg xmlns="http://www.w3.org/2000/svg" xmlns:cc="http://creativecommons.org/ns#" xmlns:dc="http://purl.org/dc/elements/1.1/" xmlns:rdf="http://www.w3.org/1999/02/22-rdf-syntax-ns#" version="1.1" viewBox="0 0 1340.1 179.37" xml:space="preserve", width=100px, height=100px>
    <title>
        VH Logo
    </title>
    <g fill="#077f91" transform="translate(-352.26 -253.95)">
        <g id="VH" transform="matrix(1.21,0,0,1.21,-720.67,-217.18)">
            <title>
                VandyHacks Logo
            </title>
            <g fill="#077f91" transform="matrix(.45929 0 0 .45929 553.78 250.61)">
                <path d="m753.57 306.74 116.1 313.26c0.92 2.49-0.48 4.52-3.14 4.52h-18.76a7.43 7.43 0 0 1-6.49-4.52l-116.1-313.26c-0.92-2.49 0.48-4.52 3.14-4.52h18.75a7.43 7.43 0 0 1 6.5 4.52z"/>
                <path d="m801.29 306.74 92.71 249.36c0.93 2.49-0.48 4.52-3.14 4.52h-18.72a7.44 7.44 0 0 1-6.5-4.52l-92.74-249.36c-0.93-2.49 0.48-4.52 3.14-4.52h18.75a7.44 7.44 0 0 1 6.5 4.52z"/>
                <path d="m871.77 620.34 116.23-313.61c0.92-2.49-0.48-4.52-3.14-4.52h-18.76a7.43 7.43 0 0 0-6.49 4.52l-116.23 313.61c-0.92 2.49 0.48 4.52 3.14 4.52h18.75a7.43 7.43 0 0 0 6.5-4.52z"/>
                <path d="m968.49 620.34 116.23-313.61c0.92-2.49-0.48-4.52-3.14-4.52h-18.75a7.43 7.43 0 0 0-6.49 4.52l-116.24 313.61c-0.92 2.49 0.48 4.52 3.14 4.52h18.76a7.43 7.43 0 0 0 6.49-4.52z"/>
                <path d="m919.77 620.35 49-132.13c0.92-2.49-0.48-4.52-3.14-4.52h-18.79a7.43 7.43 0 0 0-6.49 4.52l-49 132.13c-0.92 2.49 0.48 4.52 3.14 4.52h18.75a7.43 7.43 0 0 0 6.53-4.52z"/>
                <path d="m979.39 459.08 56.5-152.46c0.92-2.49-0.48-4.52-3.14-4.52h-18.75a7.43 7.43 0 0 0-6.49 4.52l-56.51 152.46c-0.92 2.49 0.48 4.52 3.14 4.52h18.76a7.43 7.43 0 0 0 6.49-4.52z"/>
            </g>
        </g>
        <g transform="translate(-12.796,264.3)">
            <g aria-label="VANDYHACKS V" transform="matrix(1.4429,0,0,1.4429,624.98,-631.42)">
                <path d="m5.8027 463.11h-5.8027l17.664 58.795h5.888l17.579-58.795h-5.8027l-14.763 49.579z"/>
                <path d="m62.779 521.9 5.888-15.445h27.221l5.9733 15.445h6.0587l-22.613-58.795h-5.9733l-22.613 58.795zm31.147-20.736h-23.211l11.605-30.208z"/>
                <path d="m173.52 521.9v-58.795h-5.632v48.896l-29.696-48.896h-6.0587v58.795h5.632v-49.237l29.952 49.237z"/>
                <path d="m226.73 521.9c16.64 0 26.027-12.629 26.027-29.269 0-16.725-9.3867-29.525-26.027-29.525h-22.101v58.795zm-16.469-53.163h16.469c13.568 0 20.395 10.325 20.395 23.893s-6.8267 23.637-20.395 23.637h-16.469z"/>
                <path d="m297.7 494.59 22.357-31.488h-6.8267l-18.432 25.344-18.261-25.344h-6.7413l22.101 31.488v27.307h5.8027z"/>
                <path d="m387.15 463.11h-5.632v26.965h-32.256v-26.965h-5.632v58.795h5.632v-26.539h32.256v26.539h5.632z"/>
                <path d="m417.45 521.9 5.888-15.445h27.221l5.9733 15.445h6.0587l-22.613-58.795h-5.9733l-22.613 58.795zm31.147-20.736h-23.211l11.605-30.208z"/>
                <path d="m527.11 509.95c-4.352 4.4373-10.325 7.168-17.067 7.168-13.568 0-22.869-10.923-22.869-24.491s9.3013-24.576 22.869-24.576c6.7413 0 12.629 2.7307 16.981 7.0827l3.9253-3.9253c-5.2907-5.4613-12.629-8.7893-20.907-8.7893-16.64 0-28.501 13.483-28.501 30.208 0 16.64 11.861 30.123 28.501 30.123 8.2773 0 15.701-3.328 20.992-8.7893z"/>
                <path d="m567.74 492.55 22.869-29.44h-6.656l-22.187 28.587v-28.587h-5.632v58.795h5.632v-27.648l26.197 27.648h7.5947z"/>
                <path d="m618.59 505.01h-5.632c0 8.6187 7.424 17.749 19.029 17.749 12.117 0 18.603-7.424 19.968-14.251 1.7067-11.264-6.0587-16.811-15.445-18.944l-8.0213-1.792c-8.2773-1.8773-9.3867-6.2293-9.3867-9.3013 0-6.2293 6.3147-10.411 12.8-10.411 7.2533 0 12.8 4.352 12.8 11.179h5.632c0-10.24-8.0213-16.811-18.432-16.811-9.3867 0-18.432 6.4853-18.432 16.043 0 4.9493 1.6213 12.032 13.824 14.763l7.936 1.792c6.656 1.536 12.288 5.2053 11.179 12.459-0.93867 4.608-5.5467 9.6427-14.421 9.6427-8.192 0-13.397-6.2293-13.397-12.117z"/>
                <path d="m713.3 463.11h-5.8027l17.664 58.795h5.888l17.579-58.795h-5.8027l-14.763 49.579z"/>
            </g>
            <g aria-label="®" transform="matrix(1.4429,0,0,1.4429,624.35,-631.42)">
                <path fill="#077f91" d="m333.33 468.95h-0.80818l-1.1143-1.5551h-0.45307v1.5551h-0.67349v-4.2858h1.6286c0.91839 0 1.347 0.68573 1.347 1.3714 0 0.60002-0.35511 1.2123-1.0531 1.3347zm-2.3756-3.6123v1.396h0.93063c0.45307 0 0.71022-0.34287 0.71022-0.69798 0-0.3551-0.25715-0.69797-0.68573-0.69797zm-3.6001 1.4204c0 2.3878 1.8858 4.3225 4.2736 4.3225s4.2858-1.9347 4.2858-4.3225-1.898-4.3348-4.2858-4.3348-4.2736 1.947-4.2736 4.3348zm0.68573 0c0-2.0082 1.5796-3.6368 3.5878-3.6368s3.5878 1.6286 3.5878 3.6368-1.5796 3.6246-3.5878 3.6246-3.5878-1.6164-3.5878-3.6246z" strokeWidth=".30613"/>
            </g>
        </g>
    </g>
</svg>
