<svg height=20% width=20% viewbox="0 0 300 300">
    <path
     d="m 52.31222,14.69888 71.25924,192.27101 c 0.56438,1.52826 -0.295,2.77424 -1.92728,2.77424 h -11.51437 a 4.5603438,4.5603438 0 0 1 -3.98343,-2.77424 L 34.887216,14.69888 c -0.56438,-1.52833 0.294224,-2.774238 1.927202,-2.774238 h 11.508321 a 4.5603438,4.5603438 0 0 1 3.989481,2.774238 z"/>
  <path
     d="m 81.601565,14.69888 56.903005,153.05075 c 0.5706,1.52833 -0.29422,2.77431 -1.92727,2.77431 h -11.48985 a 4.5664816,4.5664816 0 0 1 -3.98948,-2.77431 L 64.176482,14.69888 c -0.570591,-1.52833 0.294999,-2.774238 1.927279,-2.774238 h 11.50824 a 4.5664816,4.5664816 0 0 1 3.989564,2.774238 z"/>
  <path
     d="M 124.86038,207.17857 196.19935,14.692748 c 0.56438,-1.528254 -0.295,-2.774239 -1.9272,-2.774239 h -11.51446 a 4.5603438,4.5603438 0 0 0 -3.98342,2.774239 L 107.4353,207.17857 c -0.56438,1.52825 0.29422,2.77424 1.92727,2.77424 h 11.50825 a 4.5603438,4.5603438 0 0 0 3.98956,-2.77424 z"/>
  <path
     d="M 184.22462,207.17857 255.56358,14.692748 c 0.56439,-1.528254 -0.29422,-2.774239 -1.92719,-2.774239 h -11.50832 a 4.5603438,4.5603438 0 0 0 -3.98335,2.774239 L 166.79954,207.17857 c -0.56439,1.52825 0.29422,2.77424 1.92727,2.77424 h 11.51438 a 4.5603438,4.5603438 0 0 0 3.98343,-2.77424 z"/>
  <path
     d="m 154.32152,207.1847 30.07497,-81.09802 c 0.56439,-1.52833 -0.295,-2.77423 -1.92727,-2.77423 h -11.53278 a 4.5603438,4.5603438 0 0 0 -3.98343,2.77423 l -30.07497,81.09802 c -0.56438,1.52825 0.295,2.77424 1.92728,2.77424 h 11.50824 a 4.5603438,4.5603438 0 0 0 4.00796,-2.77424 z"/>
  <path
     d="m 190.91474,108.20132 34.67829,-93.576112 c 0.56438,-1.528253 -0.29423,-2.774238 -1.92728,-2.774238 h -11.50824 a 4.5603438,4.5603438 0 0 0 -3.98343,2.774238 l -34.68442,93.576112 c -0.56438,1.52826 0.295,2.77424 1.92728,2.77424 h 11.51445 a 4.5603438,4.5603438 0 0 0 3.98335,-2.77424 z"/>
</svg>